<svg width="214" height="209" viewBox="0 0 214 209" fill="none" xmlns="http://www.w3.org/2000/svg">
<g clip-path="url(#clip0_553_2774)">
<path d="M135.766 46.8329H78.282C76.972 46.8345 75.7162 47.3555 74.7899 48.2818C73.8636 49.2081 73.3425 50.464 73.3409 51.7739V179.533L72.6821 179.734L58.5803 184.053C57.912 184.257 57.1901 184.187 56.5732 183.859C55.9562 183.531 55.4946 182.972 55.2897 182.304L13.3433 45.288C13.1391 44.6196 13.2087 43.8976 13.5367 43.2805C13.8647 42.6635 14.4242 42.2019 15.0924 41.9972L36.8233 35.3433L99.8218 16.0599L121.552 9.40598C121.883 9.3042 122.231 9.26863 122.575 9.30132C122.92 9.334 123.254 9.43429 123.56 9.59645C123.866 9.75861 124.136 9.97945 124.357 10.2463C124.577 10.5132 124.742 10.8209 124.843 11.1518L135.565 46.1741L135.766 46.8329Z" fill="#EBEEF2"/>
<path d="M148.31 46.1741L135.388 3.96424C135.173 3.26095 134.821 2.60691 134.353 2.0395C133.885 1.4721 133.31 1.00244 132.661 0.657378C132.012 0.312313 131.3 0.0985974 130.568 0.0284513C129.836 -0.0416949 129.098 0.0331031 128.394 0.248563L97.8422 9.60034L34.8471 28.887L4.29485 38.242C2.87556 38.6778 1.68716 39.659 0.990516 40.9701C0.293873 42.2812 0.145896 43.8152 0.579073 45.2353L44.7456 189.491C45.0975 190.637 45.8075 191.641 46.7715 192.354C47.7355 193.067 48.9027 193.453 50.1018 193.454C50.6568 193.454 51.2086 193.371 51.7388 193.207L72.6824 186.797L73.3412 186.592V185.904L72.6824 186.105L51.5445 192.578C50.2918 192.96 48.9386 192.829 47.782 192.215C46.6254 191.6 45.7597 190.552 45.3748 189.3L1.21166 45.0409C1.02097 44.4206 0.954506 43.7688 1.01608 43.1228C1.07765 42.4768 1.26605 41.8492 1.57049 41.2761C1.87493 40.703 2.28944 40.1956 2.79027 39.7829C3.29109 39.3703 3.8684 39.0604 4.48914 38.8712L35.0414 29.5161L98.0367 10.2328L128.589 0.877731C129.06 0.734045 129.549 0.660782 130.041 0.660323C131.098 0.662695 132.126 1.00328 132.975 1.6322C133.824 2.26112 134.449 3.14533 134.759 4.1553L147.622 46.1741L147.826 46.8329H148.511L148.31 46.1741Z" fill="#173F77"/>
<path d="M40.7446 42.1053C40.1097 42.1048 39.4916 41.9009 38.9811 41.5235C38.4706 41.146 38.0945 40.6149 37.908 40.008L33.6651 26.1494C33.5511 25.7772 33.5115 25.3861 33.5487 24.9985C33.5858 24.611 33.699 24.2345 33.8816 23.8907C34.0643 23.5469 34.3129 23.2424 34.6132 22.9947C34.9136 22.7469 35.2598 22.5608 35.632 22.4469L93.5871 4.70392C94.3389 4.4745 95.151 4.55274 95.8452 4.92148C96.5394 5.29021 97.059 5.91931 97.2898 6.67069L101.533 20.5295C101.762 21.2813 101.684 22.0934 101.315 22.7875C100.946 23.4817 100.317 24.0012 99.5659 24.2322L41.6107 41.9751C41.33 42.0613 41.0381 42.1051 40.7446 42.1053Z" fill="#868B90"/>
<path d="M62.9704 14.8085C66.6089 14.8085 69.5585 11.8589 69.5585 8.22041C69.5585 4.58191 66.6089 1.63232 62.9704 1.63232C59.3319 1.63232 56.3823 4.58191 56.3823 8.22041C56.3823 11.8589 59.3319 14.8085 62.9704 14.8085Z" fill="#868B90"/>
<path d="M62.9704 12.3919C65.2744 12.3919 67.1421 10.5241 67.1421 8.22012C67.1421 5.91611 65.2744 4.04834 62.9704 4.04834C60.6663 4.04834 58.7986 5.91611 58.7986 8.22012C58.7986 10.5241 60.6663 12.3919 62.9704 12.3919Z" fill="white"/>
<path d="M198.844 191.771H87.5053C86.7629 191.77 86.0512 191.475 85.5263 190.95C85.0014 190.425 84.7062 189.713 84.7053 188.971V55.5621C84.7062 54.8198 85.0014 54.1081 85.5263 53.5832C86.0512 53.0583 86.7629 52.763 87.5053 52.7622H198.844C199.586 52.7631 200.298 53.0583 200.823 53.5832C201.348 54.1081 201.643 54.8198 201.644 55.5621V188.971C201.643 189.713 201.348 190.425 200.823 190.95C200.298 191.475 199.586 191.77 198.844 191.771Z" fill="#EBEEF2"/>
<path d="M147.622 46.1738H78.282C76.7975 46.1759 75.3743 46.7666 74.3246 47.8163C73.2749 48.866 72.6842 50.2892 72.6821 51.7737V186.105L73.3409 185.904V51.7737C73.3425 50.4637 73.8636 49.2079 74.7899 48.2816C75.7162 47.3553 76.972 46.8342 78.282 46.8326H147.826L147.622 46.1738ZM208.067 46.1738H78.282C76.7975 46.1759 75.3743 46.7666 74.3246 47.8163C73.2749 48.866 72.6842 50.2892 72.6821 51.7737V202.641C72.6842 204.125 73.2749 205.548 74.3246 206.598C75.3743 207.648 76.7975 208.239 78.282 208.241H208.067C209.552 208.239 210.975 207.648 212.025 206.598C213.074 205.548 213.665 204.125 213.667 202.641V51.7737C213.665 50.2892 213.074 48.866 212.025 47.8163C210.975 46.7666 209.552 46.1759 208.067 46.1738ZM213.008 202.641C213.007 203.951 212.486 205.207 211.559 206.133C210.633 207.059 209.377 207.58 208.067 207.582H78.282C76.972 207.58 75.7162 207.059 74.7899 206.133C73.8636 205.207 73.3425 203.951 73.3409 202.641V51.7737C73.3425 50.4637 73.8636 49.2079 74.7899 48.2816C75.7162 47.3553 76.972 46.8342 78.282 46.8326H208.067C209.377 46.8342 210.633 47.3553 211.559 48.2816C212.486 49.2079 213.007 50.4637 213.008 51.7737V202.641Z" fill="#173F77"/>
<path d="M173.48 60.6677H112.869C112.083 60.6668 111.33 60.3542 110.774 59.7984C110.218 59.2426 109.906 58.489 109.905 57.703V43.2093C109.906 42.4233 110.218 41.6697 110.774 41.1139C111.33 40.5581 112.083 40.2455 112.869 40.2446H173.48C174.266 40.2455 175.019 40.5581 175.575 41.1139C176.131 41.6697 176.444 42.4233 176.444 43.2093V57.703C176.444 58.489 176.131 59.2426 175.575 59.7984C175.019 60.3542 174.266 60.6668 173.48 60.6677Z" fill="#868B90"/>
<path d="M143.175 41.2328C146.813 41.2328 149.763 38.2832 149.763 34.6447C149.763 31.0062 146.813 28.0566 143.175 28.0566C139.536 28.0566 136.586 31.0062 136.586 34.6447C136.586 38.2832 139.536 41.2328 143.175 41.2328Z" fill="#868B90"/>
<path d="M143.175 38.6573C145.391 38.6573 147.187 36.8608 147.187 34.6446C147.187 32.4284 145.391 30.6318 143.175 30.6318C140.958 30.6318 139.162 32.4284 139.162 34.6446C139.162 36.8608 140.958 38.6573 143.175 38.6573Z" fill="white"/>
</g>
<defs>
<clipPath id="clip0_553_2774">
<rect width="213.334" height="208.241" fill="white" transform="translate(0.333008)"/>
</clipPath>
</defs>
</svg>
