<svg width="17" height="18" viewBox="0 0 17 18" fill="none" xmlns="http://www.w3.org/2000/svg">
<path d="M10.9167 16.6043L7.375 13.0627L8.54167 11.896L10.9167 14.271L15.625 9.56266L16.7917 10.7293L10.9167 16.6043ZM15.5 8.3335H13.8333V4.16683H12.1667V6.66683H3.83333V4.16683H2.16667V15.8335H7.16667V17.5002H2.16667C1.70833 17.5002 1.31611 17.3371 0.99 17.011C0.663889 16.6849 0.500556 16.2924 0.5 15.8335V4.16683C0.5 3.7085 0.663333 3.31627 0.99 2.99016C1.31667 2.66405 1.70889 2.50072 2.16667 2.50016H5.64583C5.79861 2.01405 6.09722 1.61488 6.54167 1.30266C6.98611 0.990441 7.47222 0.834052 8 0.833496C8.55556 0.833496 9.05222 0.989885 9.49 1.30266C9.92778 1.61544 10.2228 2.01461 10.375 2.50016H13.8333C14.2917 2.50016 14.6842 2.6635 15.0108 2.99016C15.3375 3.31683 15.5006 3.70905 15.5 4.16683V8.3335ZM8 4.16683C8.23611 4.16683 8.43417 4.08683 8.59417 3.92683C8.75417 3.76683 8.83389 3.56905 8.83333 3.3335C8.83278 3.09794 8.75278 2.90016 8.59333 2.74016C8.43389 2.58016 8.23611 2.50016 8 2.50016C7.76389 2.50016 7.56611 2.58016 7.40667 2.74016C7.24722 2.90016 7.16722 3.09794 7.16667 3.3335C7.16611 3.56905 7.24611 3.76711 7.40667 3.92766C7.56722 4.08822 7.765 4.16794 8 4.16683Z" fill="#0D1821"/>
</svg>
