<svg width="18" height="18" viewBox="0 0 18 18" fill="none" xmlns="http://www.w3.org/2000/svg">
<path d="M17.0921 6.25823C18.1337 5.21657 17.6587 3.9999 17.0921 3.40823L14.5921 0.908234C13.5421 -0.133433 12.3337 0.341567 11.7421 0.908234L10.3254 2.33323H8.16706C6.58372 2.33323 5.66706 3.16657 5.20039 4.1249L1.50039 7.8249V11.1582L0.908722 11.7416C-0.132945 12.7916 0.342055 13.9999 0.908722 14.5916L3.40872 17.0916C3.85872 17.5416 4.34206 17.7082 4.80039 17.7082C5.39206 17.7082 5.93372 17.4166 6.25872 17.0916L8.50872 14.8332H11.5004C12.9171 14.8332 13.6337 13.9499 13.8921 13.0832C14.8337 12.8332 15.3504 12.1166 15.5587 11.4166C16.8504 11.0832 17.3337 9.85823 17.3337 8.9999V6.4999H16.8421L17.0921 6.25823ZM15.6671 8.9999C15.6671 9.3749 15.5087 9.83323 14.8337 9.83323H14.0004V10.6666C14.0004 11.0416 13.8421 11.4999 13.1671 11.4999H12.3337V12.3332C12.3337 12.7082 12.1754 13.1666 11.5004 13.1666H7.82539L5.09206 15.8999C4.83372 16.1416 4.68372 15.9999 4.59206 15.9082L2.10039 13.4249C1.85872 13.1666 2.00039 13.0166 2.09206 12.9249L3.16706 11.8416V8.50823L4.83372 6.84157V8.16657C4.83372 9.1749 5.50039 10.6666 7.33372 10.6666C9.16706 10.6666 9.83372 9.1749 9.83372 8.16657H15.6671V8.9999ZM15.9087 5.0749L14.4921 6.4999H8.16706V8.16657C8.16706 8.54157 8.00872 8.9999 7.33372 8.9999C6.65872 8.9999 6.50039 8.54157 6.50039 8.16657V5.66657C6.50039 5.28323 6.64206 3.9999 8.16706 3.9999H11.0087L12.9087 2.0999C13.1671 1.85823 13.3171 1.9999 13.4087 2.09157L15.9004 4.5749C16.1421 4.83323 16.0004 4.98323 15.9087 5.0749Z" fill="#0D1821"/>
</svg>
