<svg width="18" height="18" viewBox="0 0 18 18" fill="none" xmlns="http://www.w3.org/2000/svg">
<path d="M3.16602 17.3332C2.70768 17.3332 2.31546 17.1701 1.98935 16.844C1.66324 16.5179 1.4999 16.1254 1.49935 15.6665V6.27067C1.24935 6.11789 1.04796 5.92012 0.895182 5.67734C0.742405 5.43456 0.666016 5.15317 0.666016 4.83317V2.33317C0.666016 1.87484 0.829349 1.48262 1.15602 1.1565C1.48268 0.830393 1.8749 0.667059 2.33268 0.666504H15.666C16.1244 0.666504 16.5169 0.829837 16.8435 1.1565C17.1702 1.48317 17.3332 1.87539 17.3327 2.33317V4.83317C17.3327 5.15262 17.2563 5.434 17.1035 5.67734C16.9507 5.92067 16.7494 6.11817 16.4994 6.26984V15.6665C16.4994 16.1248 16.3363 16.5173 16.0102 16.844C15.6841 17.1707 15.2916 17.3337 14.8327 17.3332H3.16602ZM3.16602 6.49984V15.6665H14.8327V6.49984H3.16602ZM2.33268 4.83317H15.666V2.33317H2.33268V4.83317ZM6.49935 10.6665H11.4994V8.99984H6.49935V10.6665Z" fill="#173F77"/>
</svg>
