<svg width="18" height="18" viewBox="0 0 18 18" fill="none" xmlns="http://www.w3.org/2000/svg">
<path d="M16.8327 10.8748L10.8744 16.8332C10.7077 16.9998 10.5202 17.1248 10.3118 17.2082C10.1035 17.2915 9.89518 17.3332 9.68685 17.3332C9.47852 17.3332 9.27018 17.2915 9.06185 17.2082C8.85352 17.1248 8.66602 16.9998 8.49935 16.8332L1.14518 9.479C0.992405 9.32623 0.874349 9.14928 0.791016 8.94817C0.707682 8.74706 0.666016 8.53512 0.666016 8.31234V2.33317C0.666016 1.87484 0.829349 1.48262 1.15602 1.1565C1.48268 0.830393 1.8749 0.667059 2.33268 0.666504H8.31185C8.53407 0.666504 8.74935 0.711782 8.95768 0.802337C9.16602 0.892893 9.34657 1.01428 9.49935 1.1665L16.8327 8.52067C16.9994 8.68734 17.121 8.87484 17.1977 9.08317C17.2744 9.2915 17.3124 9.49984 17.3119 9.70817C17.3113 9.9165 17.2732 10.1215 17.1977 10.3232C17.1221 10.5248 17.0005 10.7087 16.8327 10.8748ZM9.68685 15.6665L15.6452 9.70817L8.29102 2.33317H2.33268V8.2915L9.68685 15.6665ZM4.41602 5.6665C4.76324 5.6665 5.05852 5.54512 5.30185 5.30234C5.54518 5.05956 5.66657 4.76428 5.66602 4.4165C5.66546 4.06873 5.54407 3.77373 5.30185 3.5315C5.05963 3.28928 4.76435 3.16762 4.41602 3.1665C4.06768 3.16539 3.77268 3.28706 3.53102 3.5315C3.28935 3.77595 3.16768 4.07095 3.16602 4.4165C3.16435 4.76206 3.28602 5.05734 3.53102 5.30234C3.77602 5.54734 4.07102 5.66873 4.41602 5.6665Z" fill="#0D1821"/>
</svg>
