<svg width="18" height="13" viewBox="0 0 18 13" fill="none" xmlns="http://www.w3.org/2000/svg">
<path d="M9.89102 5.67519C10.3972 4.96791 10.6694 4.11996 10.6694 3.25019C10.6694 2.38043 10.3972 1.53247 9.89102 0.825194C10.365 0.502303 10.9258 0.330859 11.4993 0.333527C12.2729 0.333527 13.0148 0.640818 13.5617 1.1878C14.1087 1.73478 14.416 2.47665 14.416 3.25019C14.416 4.02374 14.1087 4.76561 13.5617 5.31259C13.0148 5.85957 12.2729 6.16686 11.4993 6.16686C10.9258 6.16953 10.365 5.99808 9.89102 5.67519ZM3.58268 3.25019C3.58268 2.67333 3.75374 2.10942 4.07423 1.62978C4.39472 1.15014 4.85024 0.776301 5.38319 0.555545C5.91614 0.334789 6.50258 0.27703 7.06836 0.38957C7.63414 0.50211 8.15384 0.779896 8.56174 1.1878C8.96965 1.5957 9.24743 2.1154 9.35997 2.68118C9.47251 3.24696 9.41475 3.8334 9.194 4.36635C8.97324 4.8993 8.59941 5.35483 8.11976 5.67531C7.64012 5.9958 7.07621 6.16686 6.49935 6.16686C5.7258 6.16686 4.98394 5.85957 4.43695 5.31259C3.88997 4.76561 3.58268 4.02374 3.58268 3.25019ZM5.24935 3.25019C5.24935 3.49742 5.32266 3.73909 5.46001 3.94466C5.59736 4.15022 5.79259 4.31043 6.021 4.40504C6.2494 4.49965 6.50074 4.52441 6.74321 4.47618C6.98569 4.42794 7.20842 4.30889 7.38323 4.13408C7.55805 3.95926 7.6771 3.73653 7.72533 3.49406C7.77356 3.25158 7.74881 3.00025 7.6542 2.77184C7.55959 2.54343 7.39937 2.34821 7.19381 2.21086C6.98825 2.0735 6.74658 2.00019 6.49935 2.00019C6.16783 2.00019 5.84989 2.13189 5.61547 2.36631C5.38104 2.60073 5.24935 2.91867 5.24935 3.25019ZM12.3327 11.1669V12.8335H0.666016V11.1669C0.666016 11.1669 0.666016 7.83353 6.49935 7.83353C12.3327 7.83353 12.3327 11.1669 12.3327 11.1669ZM10.666 11.1669C10.5493 10.5169 9.55768 9.50019 6.49935 9.50019C3.44102 9.50019 2.39102 10.5919 2.33268 11.1669M12.291 7.83353C12.8018 8.2308 13.2194 8.73507 13.5145 9.31092C13.8096 9.88677 13.9751 10.5202 13.9993 11.1669V12.8335H17.3327V11.1669C17.3327 11.1669 17.3327 8.14186 12.2827 7.83353H12.291Z" fill="#0D1821"/>
</svg>
